<svg width="297" height="297" viewBox="0 0 297 297" fill="none" xmlns="http://www.w3.org/2000/svg">
<rect width="297" height="297" rx="46" fill="#0073AA"/>
<rect x="154.447" y="100" width="29.512" height="29.6698" rx="4.34109" fill="white"/>
<rect x="188.077" y="133.616" width="29.6089" height="29.7672" rx="4.35533" fill="white"/>
<path d="M154.629 179.735L154.629 137.986C154.629 135.594 156.568 133.655 158.96 133.655L179.741 133.655C182.133 133.655 184.072 135.594 184.072 137.986L184.072 192.695C184.072 196.095 180.334 198.169 177.449 196.37L156.668 183.41C155.4 182.619 154.629 181.229 154.629 179.735Z" fill="white"/>
<rect x="232.744" y="100" width="29.7672" height="44.6685" rx="4.35533" transform="rotate(90 232.744 100)" fill="white"/>
<rect x="232.744" y="167.233" width="29.7672" height="44.6685" rx="4.35533" transform="rotate(90 232.744 167.233)" fill="white"/>
<rect x="64" y="100" width="29.5686" height="29.5686" rx="8.27632" fill="white"/>
<path d="M64 152.849V188.587C64 193.157 67.7054 196.863 72.2763 196.863H85.2923C89.8632 196.863 93.5686 193.157 93.5686 188.587V144.994C93.5686 138.552 86.5322 134.58 81.0162 137.908L68.0002 145.763C65.5176 147.261 64 149.949 64 152.849Z" fill="white"/>
<path d="M97.6471 121.292V108.276C97.6471 103.705 101.352 100 105.923 100H122.322C125.132 100 127.828 101.104 129.832 103.074L139.09 112.178C140.952 114.008 142 116.51 142 119.12V144.222C142 146.833 140.951 149.335 139.09 151.165L129.249 160.841C127.701 162.363 125.617 163.216 123.446 163.216H105.923C101.352 163.216 97.6471 159.51 97.6471 154.939V141.923C97.6471 137.352 101.352 133.647 105.923 133.647H124.922C126.048 133.647 126.961 132.734 126.961 131.608C126.961 130.482 126.048 129.569 124.922 129.569H105.923C101.352 129.569 97.6471 125.863 97.6471 121.292Z" fill="white"/>
</svg>
